<mxfile host="app.diagrams.net" agent="Mozilla/5.0 (Windows NT 10.0; Win64; x64) AppleWebKit/537.36 (KHTML, like Gecko) Chrome/136.0.0.0 Safari/537.36" version="27.0.6">
  <diagram name="Página-1" id="FDRU-HeMna1RUl9ga14r">
    <mxGraphModel dx="1389" dy="1918" grid="1" gridSize="10" guides="1" tooltips="1" connect="1" arrows="1" fold="1" page="1" pageScale="1" pageWidth="827" pageHeight="1169" math="0" shadow="0">
      <root>
        <mxCell id="0" />
        <mxCell id="1" parent="0" />
        <mxCell id="f-arCkn82xLBlMCy81r3-9" value="&lt;span style=&quot;color: rgb(29, 33, 37); font-family: -apple-system, BlinkMacSystemFont, &amp;quot;Segoe UI&amp;quot;, Roboto, &amp;quot;Helvetica Neue&amp;quot;, Arial, &amp;quot;Noto Sans&amp;quot;, &amp;quot;Liberation Sans&amp;quot;, sans-serif, &amp;quot;Apple Color Emoji&amp;quot;, &amp;quot;Segoe UI Emoji&amp;quot;, &amp;quot;Segoe UI Symbol&amp;quot;, &amp;quot;Noto Color Emoji&amp;quot;; font-size: 15px; text-align: left; background-color: rgb(248, 249, 250);&quot;&gt;Pedidos&lt;/span&gt;" style="swimlane;fontStyle=0;align=center;verticalAlign=top;childLayout=stackLayout;horizontal=1;startSize=55;horizontalStack=0;resizeParent=1;resizeParentMax=0;resizeLast=0;collapsible=0;marginBottom=0;html=1;whiteSpace=wrap;" parent="1" vertex="1">
          <mxGeometry x="319" y="160" width="190" height="270" as="geometry" />
        </mxCell>
        <mxCell id="f-arCkn82xLBlMCy81r3-10" value="Atributos&amp;nbsp;" style="text;html=1;strokeColor=none;fillColor=none;align=center;verticalAlign=middle;spacingLeft=4;spacingRight=4;overflow=hidden;rotatable=0;points=[[0,0.5],[1,0.5]];portConstraint=eastwest;whiteSpace=wrap;" parent="f-arCkn82xLBlMCy81r3-9" vertex="1">
          <mxGeometry y="55" width="190" height="20" as="geometry" />
        </mxCell>
        <mxCell id="f-arCkn82xLBlMCy81r3-11" value="id nombre&lt;div&gt;id empleado&lt;/div&gt;&lt;div&gt;dirección&amp;nbsp;&lt;/div&gt;&lt;div&gt;pedido&amp;nbsp;&lt;br&gt;&lt;div&gt;total a pagar&amp;nbsp;&lt;/div&gt;&lt;div&gt;&lt;br&gt;&lt;/div&gt;&lt;div&gt;&lt;br&gt;&lt;/div&gt;&lt;/div&gt;" style="text;html=1;strokeColor=none;fillColor=none;align=left;verticalAlign=middle;spacingLeft=4;spacingRight=4;overflow=hidden;rotatable=0;points=[[0,0.5],[1,0.5]];portConstraint=eastwest;whiteSpace=wrap;" parent="f-arCkn82xLBlMCy81r3-9" vertex="1">
          <mxGeometry y="75" width="190" height="95" as="geometry" />
        </mxCell>
        <mxCell id="f-arCkn82xLBlMCy81r3-14" value="" style="line;strokeWidth=1;fillColor=none;align=left;verticalAlign=middle;spacingTop=-1;spacingLeft=3;spacingRight=3;rotatable=0;labelPosition=right;points=[];portConstraint=eastwest;" parent="f-arCkn82xLBlMCy81r3-9" vertex="1">
          <mxGeometry y="170" width="190" height="8" as="geometry" />
        </mxCell>
        <mxCell id="f-arCkn82xLBlMCy81r3-15" value="operaciones&amp;nbsp;" style="text;html=1;strokeColor=none;fillColor=none;align=center;verticalAlign=middle;spacingLeft=4;spacingRight=4;overflow=hidden;rotatable=0;points=[[0,0.5],[1,0.5]];portConstraint=eastwest;whiteSpace=wrap;" parent="f-arCkn82xLBlMCy81r3-9" vertex="1">
          <mxGeometry y="178" width="190" height="20" as="geometry" />
        </mxCell>
        <mxCell id="f-arCkn82xLBlMCy81r3-16" value="+id nombre&amp;nbsp;&lt;div&gt;-dirección&amp;nbsp;&lt;/div&gt;&lt;div&gt;+pedido&lt;/div&gt;&lt;div&gt;+total a pagar&amp;nbsp;&amp;nbsp;&lt;/div&gt;" style="text;html=1;strokeColor=none;fillColor=none;align=left;verticalAlign=middle;spacingLeft=4;spacingRight=4;overflow=hidden;rotatable=0;points=[[0,0.5],[1,0.5]];portConstraint=eastwest;whiteSpace=wrap;" parent="f-arCkn82xLBlMCy81r3-9" vertex="1">
          <mxGeometry y="198" width="190" height="72" as="geometry" />
        </mxCell>
        <mxCell id="f-arCkn82xLBlMCy81r3-17" value="&lt;span style=&quot;color: rgb(29, 33, 37); font-family: -apple-system, BlinkMacSystemFont, &amp;quot;Segoe UI&amp;quot;, Roboto, &amp;quot;Helvetica Neue&amp;quot;, Arial, &amp;quot;Noto Sans&amp;quot;, &amp;quot;Liberation Sans&amp;quot;, sans-serif, &amp;quot;Apple Color Emoji&amp;quot;, &amp;quot;Segoe UI Emoji&amp;quot;, &amp;quot;Segoe UI Symbol&amp;quot;, &amp;quot;Noto Color Emoji&amp;quot;; font-size: 15px; text-align: left; background-color: rgb(248, 249, 250);&quot;&gt;seguimiento del estado&amp;nbsp;&lt;/span&gt;" style="swimlane;fontStyle=0;align=center;verticalAlign=top;childLayout=stackLayout;horizontal=1;startSize=55;horizontalStack=0;resizeParent=1;resizeParentMax=0;resizeLast=0;collapsible=0;marginBottom=0;html=1;whiteSpace=wrap;" parent="1" vertex="1">
          <mxGeometry x="1310" y="165" width="230" height="290" as="geometry" />
        </mxCell>
        <mxCell id="f-arCkn82xLBlMCy81r3-18" value="attributes" style="text;html=1;strokeColor=none;fillColor=none;align=center;verticalAlign=middle;spacingLeft=4;spacingRight=4;overflow=hidden;rotatable=0;points=[[0,0.5],[1,0.5]];portConstraint=eastwest;whiteSpace=wrap;" parent="f-arCkn82xLBlMCy81r3-17" vertex="1">
          <mxGeometry y="55" width="230" height="20" as="geometry" />
        </mxCell>
        <mxCell id="f-arCkn82xLBlMCy81r3-19" value="dirección&amp;nbsp;&lt;div&gt;tiempo estimado de llegada&amp;nbsp;&lt;/div&gt;&lt;div&gt;seguimiento de repartidor&amp;nbsp;&lt;/div&gt;&lt;div&gt;propina&lt;/div&gt;&lt;div&gt;repartidor&amp;nbsp;&lt;/div&gt;" style="text;html=1;strokeColor=none;fillColor=none;align=left;verticalAlign=middle;spacingLeft=4;spacingRight=4;overflow=hidden;rotatable=0;points=[[0,0.5],[1,0.5]];portConstraint=eastwest;whiteSpace=wrap;" parent="f-arCkn82xLBlMCy81r3-17" vertex="1">
          <mxGeometry y="75" width="230" height="105" as="geometry" />
        </mxCell>
        <mxCell id="f-arCkn82xLBlMCy81r3-22" value="" style="line;strokeWidth=1;fillColor=none;align=left;verticalAlign=middle;spacingTop=-1;spacingLeft=3;spacingRight=3;rotatable=0;labelPosition=right;points=[];portConstraint=eastwest;" parent="f-arCkn82xLBlMCy81r3-17" vertex="1">
          <mxGeometry y="180" width="230" height="8" as="geometry" />
        </mxCell>
        <mxCell id="f-arCkn82xLBlMCy81r3-23" value="operaciones&amp;nbsp;" style="text;html=1;strokeColor=none;fillColor=none;align=center;verticalAlign=middle;spacingLeft=4;spacingRight=4;overflow=hidden;rotatable=0;points=[[0,0.5],[1,0.5]];portConstraint=eastwest;whiteSpace=wrap;" parent="f-arCkn82xLBlMCy81r3-17" vertex="1">
          <mxGeometry y="188" width="230" height="20" as="geometry" />
        </mxCell>
        <mxCell id="f-arCkn82xLBlMCy81r3-24" value="+ubicación tiempo real&amp;nbsp;&lt;div&gt;-dirección&lt;/div&gt;&lt;div&gt;+tiempo estimado de llegada&lt;/div&gt;&lt;div&gt;+pago&lt;/div&gt;&lt;div&gt;+id repartidor&amp;nbsp;&lt;/div&gt;" style="text;html=1;strokeColor=none;fillColor=none;align=left;verticalAlign=middle;spacingLeft=4;spacingRight=4;overflow=hidden;rotatable=0;points=[[0,0.5],[1,0.5]];portConstraint=eastwest;whiteSpace=wrap;" parent="f-arCkn82xLBlMCy81r3-17" vertex="1">
          <mxGeometry y="208" width="230" height="82" as="geometry" />
        </mxCell>
        <mxCell id="f-arCkn82xLBlMCy81r3-25" value="&lt;span style=&quot;color: rgb(29, 33, 37); font-family: -apple-system, BlinkMacSystemFont, &amp;quot;Segoe UI&amp;quot;, Roboto, &amp;quot;Helvetica Neue&amp;quot;, Arial, &amp;quot;Noto Sans&amp;quot;, &amp;quot;Liberation Sans&amp;quot;, sans-serif, &amp;quot;Apple Color Emoji&amp;quot;, &amp;quot;Segoe UI Emoji&amp;quot;, &amp;quot;Segoe UI Symbol&amp;quot;, &amp;quot;Noto Color Emoji&amp;quot;; font-size: 15px; text-align: left; background-color: rgb(248, 249, 250);&quot;&gt;Método Pago&amp;nbsp;&lt;/span&gt;" style="swimlane;fontStyle=0;align=center;verticalAlign=top;childLayout=stackLayout;horizontal=1;startSize=55;horizontalStack=0;resizeParent=1;resizeParentMax=0;resizeLast=0;collapsible=0;marginBottom=0;html=1;whiteSpace=wrap;" parent="1" vertex="1">
          <mxGeometry x="990" y="165" width="190" height="260" as="geometry" />
        </mxCell>
        <mxCell id="f-arCkn82xLBlMCy81r3-26" value="attributes" style="text;html=1;strokeColor=none;fillColor=none;align=center;verticalAlign=middle;spacingLeft=4;spacingRight=4;overflow=hidden;rotatable=0;points=[[0,0.5],[1,0.5]];portConstraint=eastwest;whiteSpace=wrap;" parent="f-arCkn82xLBlMCy81r3-25" vertex="1">
          <mxGeometry y="55" width="190" height="20" as="geometry" />
        </mxCell>
        <mxCell id="f-arCkn82xLBlMCy81r3-27" value="pagar con tarjeta&lt;div&gt;pagar en efectivo&amp;nbsp;&lt;/div&gt;&lt;div&gt;nit&amp;nbsp;&lt;/div&gt;&lt;div&gt;id nombre&lt;/div&gt;&lt;div&gt;pagar repartidor&amp;nbsp;&lt;/div&gt;&lt;div&gt;&amp;nbsp;&lt;/div&gt;" style="text;html=1;strokeColor=none;fillColor=none;align=left;verticalAlign=middle;spacingLeft=4;spacingRight=4;overflow=hidden;rotatable=0;points=[[0,0.5],[1,0.5]];portConstraint=eastwest;whiteSpace=wrap;" parent="f-arCkn82xLBlMCy81r3-25" vertex="1">
          <mxGeometry y="75" width="190" height="85" as="geometry" />
        </mxCell>
        <mxCell id="f-arCkn82xLBlMCy81r3-30" value="" style="line;strokeWidth=1;fillColor=none;align=left;verticalAlign=middle;spacingTop=-1;spacingLeft=3;spacingRight=3;rotatable=0;labelPosition=right;points=[];portConstraint=eastwest;" parent="f-arCkn82xLBlMCy81r3-25" vertex="1">
          <mxGeometry y="160" width="190" height="8" as="geometry" />
        </mxCell>
        <mxCell id="f-arCkn82xLBlMCy81r3-31" value="operaciones&amp;nbsp;" style="text;html=1;strokeColor=none;fillColor=none;align=center;verticalAlign=middle;spacingLeft=4;spacingRight=4;overflow=hidden;rotatable=0;points=[[0,0.5],[1,0.5]];portConstraint=eastwest;whiteSpace=wrap;" parent="f-arCkn82xLBlMCy81r3-25" vertex="1">
          <mxGeometry y="168" width="190" height="20" as="geometry" />
        </mxCell>
        <mxCell id="f-arCkn82xLBlMCy81r3-32" value="-nit&amp;nbsp;&lt;div&gt;+id nombre&lt;/div&gt;&lt;div&gt;+cantidad a pagar&amp;nbsp;&lt;/div&gt;&lt;div&gt;-pagar con tarjeta/efectivo&amp;nbsp;&lt;/div&gt;" style="text;html=1;strokeColor=none;fillColor=none;align=left;verticalAlign=middle;spacingLeft=4;spacingRight=4;overflow=hidden;rotatable=0;points=[[0,0.5],[1,0.5]];portConstraint=eastwest;whiteSpace=wrap;" parent="f-arCkn82xLBlMCy81r3-25" vertex="1">
          <mxGeometry y="188" width="190" height="72" as="geometry" />
        </mxCell>
        <mxCell id="f-arCkn82xLBlMCy81r3-33" value="&lt;span style=&quot;color: rgb(29, 33, 37); font-family: -apple-system, BlinkMacSystemFont, &amp;quot;Segoe UI&amp;quot;, Roboto, &amp;quot;Helvetica Neue&amp;quot;, Arial, &amp;quot;Noto Sans&amp;quot;, &amp;quot;Liberation Sans&amp;quot;, sans-serif, &amp;quot;Apple Color Emoji&amp;quot;, &amp;quot;Segoe UI Emoji&amp;quot;, &amp;quot;Segoe UI Symbol&amp;quot;, &amp;quot;Noto Color Emoji&amp;quot;; font-size: 15px; text-align: left; background-color: rgb(248, 249, 250);&quot;&gt;Menú&lt;/span&gt;" style="swimlane;fontStyle=0;align=center;verticalAlign=top;childLayout=stackLayout;horizontal=1;startSize=55;horizontalStack=0;resizeParent=1;resizeParentMax=0;resizeLast=0;collapsible=0;marginBottom=0;html=1;whiteSpace=wrap;" parent="1" vertex="1">
          <mxGeometry x="40" y="180" width="200" height="200" as="geometry" />
        </mxCell>
        <mxCell id="f-arCkn82xLBlMCy81r3-34" value="Atributos&amp;nbsp;" style="text;html=1;strokeColor=none;fillColor=none;align=center;verticalAlign=middle;spacingLeft=4;spacingRight=4;overflow=hidden;rotatable=0;points=[[0,0.5],[1,0.5]];portConstraint=eastwest;whiteSpace=wrap;" parent="f-arCkn82xLBlMCy81r3-33" vertex="1">
          <mxGeometry y="55" width="200" height="20" as="geometry" />
        </mxCell>
        <mxCell id="f-arCkn82xLBlMCy81r3-35" value="Orden&amp;nbsp;&lt;div&gt;cantidad disponible&amp;nbsp;&lt;/div&gt;&lt;div&gt;precios&amp;nbsp;&lt;/div&gt;" style="text;html=1;strokeColor=none;fillColor=none;align=left;verticalAlign=middle;spacingLeft=4;spacingRight=4;overflow=hidden;rotatable=0;points=[[0,0.5],[1,0.5]];portConstraint=eastwest;whiteSpace=wrap;" parent="f-arCkn82xLBlMCy81r3-33" vertex="1">
          <mxGeometry y="75" width="200" height="45" as="geometry" />
        </mxCell>
        <mxCell id="f-arCkn82xLBlMCy81r3-38" value="" style="line;strokeWidth=1;fillColor=none;align=left;verticalAlign=middle;spacingTop=-1;spacingLeft=3;spacingRight=3;rotatable=0;labelPosition=right;points=[];portConstraint=eastwest;" parent="f-arCkn82xLBlMCy81r3-33" vertex="1">
          <mxGeometry y="120" width="200" height="8" as="geometry" />
        </mxCell>
        <mxCell id="f-arCkn82xLBlMCy81r3-39" value="operaciones&amp;nbsp;" style="text;html=1;strokeColor=none;fillColor=none;align=center;verticalAlign=middle;spacingLeft=4;spacingRight=4;overflow=hidden;rotatable=0;points=[[0,0.5],[1,0.5]];portConstraint=eastwest;whiteSpace=wrap;" parent="f-arCkn82xLBlMCy81r3-33" vertex="1">
          <mxGeometry y="128" width="200" height="20" as="geometry" />
        </mxCell>
        <mxCell id="f-arCkn82xLBlMCy81r3-40" value="+cantidad de disponibilidad&lt;div&gt;+precio&amp;nbsp;&lt;/div&gt;&lt;div&gt;&lt;br&gt;&lt;/div&gt;" style="text;html=1;strokeColor=none;fillColor=none;align=left;verticalAlign=middle;spacingLeft=4;spacingRight=4;overflow=hidden;rotatable=0;points=[[0,0.5],[1,0.5]];portConstraint=eastwest;whiteSpace=wrap;" parent="f-arCkn82xLBlMCy81r3-33" vertex="1">
          <mxGeometry y="148" width="200" height="52" as="geometry" />
        </mxCell>
        <mxCell id="bG3tENvONIbohq4jLQ1T-10" style="edgeStyle=orthogonalEdgeStyle;rounded=0;orthogonalLoop=1;jettySize=auto;html=1;" edge="1" parent="1" source="f-arCkn82xLBlMCy81r3-41" target="f-arCkn82xLBlMCy81r3-27">
          <mxGeometry relative="1" as="geometry" />
        </mxCell>
        <mxCell id="f-arCkn82xLBlMCy81r3-41" value="&lt;span style=&quot;color: rgb(29, 33, 37); font-family: -apple-system, BlinkMacSystemFont, &amp;quot;Segoe UI&amp;quot;, Roboto, &amp;quot;Helvetica Neue&amp;quot;, Arial, &amp;quot;Noto Sans&amp;quot;, &amp;quot;Liberation Sans&amp;quot;, sans-serif, &amp;quot;Apple Color Emoji&amp;quot;, &amp;quot;Segoe UI Emoji&amp;quot;, &amp;quot;Segoe UI Symbol&amp;quot;, &amp;quot;Noto Color Emoji&amp;quot;; font-size: 15px; text-align: left; background-color: rgb(248, 249, 250);&quot;&gt;usuarios&lt;/span&gt;" style="swimlane;fontStyle=0;align=center;verticalAlign=top;childLayout=stackLayout;horizontal=1;startSize=55;horizontalStack=0;resizeParent=1;resizeParentMax=0;resizeLast=0;collapsible=0;marginBottom=0;html=1;whiteSpace=wrap;" parent="1" vertex="1">
          <mxGeometry x="650" y="150" width="210" height="290" as="geometry" />
        </mxCell>
        <mxCell id="f-arCkn82xLBlMCy81r3-42" value="Atributos&amp;nbsp;" style="text;html=1;strokeColor=none;fillColor=none;align=center;verticalAlign=middle;spacingLeft=4;spacingRight=4;overflow=hidden;rotatable=0;points=[[0,0.5],[1,0.5]];portConstraint=eastwest;whiteSpace=wrap;" parent="f-arCkn82xLBlMCy81r3-41" vertex="1">
          <mxGeometry y="55" width="210" height="20" as="geometry" />
        </mxCell>
        <mxCell id="f-arCkn82xLBlMCy81r3-43" value="Id nombre&amp;nbsp;&lt;div&gt;pago&amp;nbsp;&lt;/div&gt;&lt;div&gt;nit&amp;nbsp;&lt;/div&gt;&lt;div&gt;dirección&amp;nbsp;&lt;/div&gt;&lt;div&gt;pedido&lt;/div&gt;&lt;div&gt;numero de teléfono&amp;nbsp;&lt;/div&gt;&lt;div&gt;&lt;br&gt;&lt;/div&gt;" style="text;html=1;strokeColor=none;fillColor=none;align=left;verticalAlign=middle;spacingLeft=4;spacingRight=4;overflow=hidden;rotatable=0;points=[[0,0.5],[1,0.5]];portConstraint=eastwest;whiteSpace=wrap;" parent="f-arCkn82xLBlMCy81r3-41" vertex="1">
          <mxGeometry y="75" width="210" height="105" as="geometry" />
        </mxCell>
        <mxCell id="f-arCkn82xLBlMCy81r3-46" value="" style="line;strokeWidth=1;fillColor=none;align=left;verticalAlign=middle;spacingTop=-1;spacingLeft=3;spacingRight=3;rotatable=0;labelPosition=right;points=[];portConstraint=eastwest;" parent="f-arCkn82xLBlMCy81r3-41" vertex="1">
          <mxGeometry y="180" width="210" height="8" as="geometry" />
        </mxCell>
        <mxCell id="f-arCkn82xLBlMCy81r3-47" value="operaciones&amp;nbsp;" style="text;html=1;strokeColor=none;fillColor=none;align=center;verticalAlign=middle;spacingLeft=4;spacingRight=4;overflow=hidden;rotatable=0;points=[[0,0.5],[1,0.5]];portConstraint=eastwest;whiteSpace=wrap;" parent="f-arCkn82xLBlMCy81r3-41" vertex="1">
          <mxGeometry y="188" width="210" height="20" as="geometry" />
        </mxCell>
        <mxCell id="f-arCkn82xLBlMCy81r3-48" value="+id nombre&lt;div&gt;+numero de teléfono&amp;nbsp;&lt;/div&gt;&lt;div&gt;-nit&lt;/div&gt;&lt;div&gt;-dirección&amp;nbsp;&lt;/div&gt;&lt;div&gt;+pedido&amp;nbsp;&lt;/div&gt;" style="text;html=1;strokeColor=none;fillColor=none;align=left;verticalAlign=middle;spacingLeft=4;spacingRight=4;overflow=hidden;rotatable=0;points=[[0,0.5],[1,0.5]];portConstraint=eastwest;whiteSpace=wrap;" parent="f-arCkn82xLBlMCy81r3-41" vertex="1">
          <mxGeometry y="208" width="210" height="82" as="geometry" />
        </mxCell>
        <mxCell id="bG3tENvONIbohq4jLQ1T-1" value="&lt;span style=&quot;color: rgb(29, 33, 37); font-family: -apple-system, BlinkMacSystemFont, &amp;quot;Segoe UI&amp;quot;, Roboto, &amp;quot;Helvetica Neue&amp;quot;, Arial, &amp;quot;Noto Sans&amp;quot;, &amp;quot;Liberation Sans&amp;quot;, sans-serif, &amp;quot;Apple Color Emoji&amp;quot;, &amp;quot;Segoe UI Emoji&amp;quot;, &amp;quot;Segoe UI Symbol&amp;quot;, &amp;quot;Noto Color Emoji&amp;quot;; font-size: 15px; text-align: left; background-color: rgb(248, 249, 250);&quot;&gt;Restaurante&amp;nbsp;&lt;/span&gt;" style="swimlane;fontStyle=0;align=center;verticalAlign=top;childLayout=stackLayout;horizontal=1;startSize=55;horizontalStack=0;resizeParent=1;resizeParentMax=0;resizeLast=0;collapsible=0;marginBottom=0;html=1;whiteSpace=wrap;" vertex="1" parent="1">
          <mxGeometry x="620" y="-270" width="190" height="290" as="geometry" />
        </mxCell>
        <mxCell id="bG3tENvONIbohq4jLQ1T-2" value="attributes" style="text;html=1;strokeColor=none;fillColor=none;align=center;verticalAlign=middle;spacingLeft=4;spacingRight=4;overflow=hidden;rotatable=0;points=[[0,0.5],[1,0.5]];portConstraint=eastwest;whiteSpace=wrap;" vertex="1" parent="bG3tENvONIbohq4jLQ1T-1">
          <mxGeometry y="55" width="190" height="20" as="geometry" />
        </mxCell>
        <mxCell id="bG3tENvONIbohq4jLQ1T-3" value="dirección&amp;nbsp;&lt;div&gt;numero de teléfono&amp;nbsp;&lt;/div&gt;&lt;div&gt;id empleado&amp;nbsp;&lt;/div&gt;&lt;div&gt;menú&lt;/div&gt;&lt;div&gt;correo&amp;nbsp;&lt;/div&gt;&lt;div&gt;id repartidor&amp;nbsp;&lt;/div&gt;" style="text;html=1;strokeColor=none;fillColor=none;align=left;verticalAlign=middle;spacingLeft=4;spacingRight=4;overflow=hidden;rotatable=0;points=[[0,0.5],[1,0.5]];portConstraint=eastwest;whiteSpace=wrap;" vertex="1" parent="bG3tENvONIbohq4jLQ1T-1">
          <mxGeometry y="75" width="190" height="105" as="geometry" />
        </mxCell>
        <mxCell id="bG3tENvONIbohq4jLQ1T-4" value="" style="line;strokeWidth=1;fillColor=none;align=left;verticalAlign=middle;spacingTop=-1;spacingLeft=3;spacingRight=3;rotatable=0;labelPosition=right;points=[];portConstraint=eastwest;" vertex="1" parent="bG3tENvONIbohq4jLQ1T-1">
          <mxGeometry y="180" width="190" height="8" as="geometry" />
        </mxCell>
        <mxCell id="bG3tENvONIbohq4jLQ1T-5" value="operaciones&amp;nbsp;" style="text;html=1;strokeColor=none;fillColor=none;align=center;verticalAlign=middle;spacingLeft=4;spacingRight=4;overflow=hidden;rotatable=0;points=[[0,0.5],[1,0.5]];portConstraint=eastwest;whiteSpace=wrap;" vertex="1" parent="bG3tENvONIbohq4jLQ1T-1">
          <mxGeometry y="188" width="190" height="20" as="geometry" />
        </mxCell>
        <mxCell id="bG3tENvONIbohq4jLQ1T-6" value="+ubicación&amp;nbsp;&lt;div&gt;+numero de teléfono&lt;/div&gt;&lt;div&gt;-id empleado&lt;/div&gt;&lt;div&gt;+menú&lt;/div&gt;&lt;div&gt;-id repartidor&lt;/div&gt;" style="text;html=1;strokeColor=none;fillColor=none;align=left;verticalAlign=middle;spacingLeft=4;spacingRight=4;overflow=hidden;rotatable=0;points=[[0,0.5],[1,0.5]];portConstraint=eastwest;whiteSpace=wrap;" vertex="1" parent="bG3tENvONIbohq4jLQ1T-1">
          <mxGeometry y="208" width="190" height="82" as="geometry" />
        </mxCell>
        <mxCell id="bG3tENvONIbohq4jLQ1T-7" style="edgeStyle=orthogonalEdgeStyle;rounded=0;orthogonalLoop=1;jettySize=auto;html=1;entryX=0;entryY=0.5;entryDx=0;entryDy=0;" edge="1" parent="1" source="bG3tENvONIbohq4jLQ1T-3" target="f-arCkn82xLBlMCy81r3-35">
          <mxGeometry relative="1" as="geometry">
            <Array as="points">
              <mxPoint x="20" y="-142" />
              <mxPoint x="20" y="278" />
            </Array>
          </mxGeometry>
        </mxCell>
        <mxCell id="bG3tENvONIbohq4jLQ1T-8" style="edgeStyle=orthogonalEdgeStyle;rounded=0;orthogonalLoop=1;jettySize=auto;html=1;" edge="1" parent="1" source="f-arCkn82xLBlMCy81r3-35" target="f-arCkn82xLBlMCy81r3-11">
          <mxGeometry relative="1" as="geometry" />
        </mxCell>
        <mxCell id="bG3tENvONIbohq4jLQ1T-9" style="edgeStyle=orthogonalEdgeStyle;rounded=0;orthogonalLoop=1;jettySize=auto;html=1;" edge="1" parent="1" source="f-arCkn82xLBlMCy81r3-11" target="f-arCkn82xLBlMCy81r3-43">
          <mxGeometry relative="1" as="geometry" />
        </mxCell>
        <mxCell id="bG3tENvONIbohq4jLQ1T-12" style="edgeStyle=orthogonalEdgeStyle;rounded=0;orthogonalLoop=1;jettySize=auto;html=1;entryX=0.336;entryY=1.081;entryDx=0;entryDy=0;entryPerimeter=0;exitX=0.429;exitY=0.909;exitDx=0;exitDy=0;exitPerimeter=0;" edge="1" parent="1" source="f-arCkn82xLBlMCy81r3-24" target="f-arCkn82xLBlMCy81r3-48">
          <mxGeometry relative="1" as="geometry">
            <Array as="points">
              <mxPoint x="1190" y="450" />
              <mxPoint x="1190" y="590" />
              <mxPoint x="980" y="590" />
              <mxPoint x="980" y="490" />
              <mxPoint x="647" y="490" />
            </Array>
          </mxGeometry>
        </mxCell>
        <mxCell id="bG3tENvONIbohq4jLQ1T-13" style="edgeStyle=orthogonalEdgeStyle;rounded=0;orthogonalLoop=1;jettySize=auto;html=1;entryX=0.5;entryY=0;entryDx=0;entryDy=0;" edge="1" parent="1" source="bG3tENvONIbohq4jLQ1T-6" target="f-arCkn82xLBlMCy81r3-41">
          <mxGeometry relative="1" as="geometry" />
        </mxCell>
      </root>
    </mxGraphModel>
  </diagram>
</mxfile>
